<svg width="334" height="317" viewBox="0 0 334 317" fill="none" xmlns="http://www.w3.org/2000/svg">
<path d="M108.447 50.0526C101.81 50.0526 95.4444 52.6893 90.7511 57.3827C86.0577 62.076 83.4211 68.4416 83.4211 75.0789C83.4211 81.7163 86.0577 88.0819 90.7511 92.7752C95.4444 97.4686 101.81 100.105 108.447 100.105C115.085 100.105 121.45 97.4686 126.144 92.7752C130.837 88.0819 133.474 81.7163 133.474 75.0789C133.474 68.4416 130.837 62.076 126.144 57.3827C121.45 52.6893 115.085 50.0526 108.447 50.0526ZM133.474 0C155.598 0 176.817 8.78898 192.461 24.4335C208.106 40.0779 216.895 61.2964 216.895 83.4211C216.895 111.784 202.713 136.811 181.191 151.826C207.552 154.329 237.249 160.335 266.947 175.184C317 200.211 333.684 166.842 333.684 166.842C333.684 166.842 317 317 216.895 317H116.789C116.789 317 33.3684 317 33.3684 233.579C33.3684 183.526 83.4211 166.842 66.7368 133.474C-1.90735e-06 133.474 -1.90735e-06 75.0789 -1.90735e-06 75.0789C16.6842 83.4211 37.3726 83.4211 50.0526 77.5816C53.2226 34.2026 89.4274 0 133.474 0Z" fill="url(#paint0_linear_17_110)"/>
<defs>
<linearGradient id="paint0_linear_17_110" x1="166.842" y1="0" x2="166.842" y2="317" gradientUnits="userSpaceOnUse">
<stop stop-color="#82203C"/>
<stop offset="1" stop-color="#6C1945"/>
</linearGradient>
</defs>
</svg>
